<?xml version="1.0" encoding="UTF-8"?>
<svg version="1.1" xmlns="http://www.w3.org/2000/svg" width="512" height="512">
<path d="M0 0 C3.14285672 2.68475313 5.11611041 5.58727509 7.14453125 9.1640625 C7.73097412 10.19007568 8.31741699 11.21608887 8.92163086 12.27319336 C9.54561768 13.37928955 10.16960449 14.48538574 10.8125 15.625 C11.47789739 16.792798 12.14400754 17.96019013 12.81079102 19.12719727 C14.19412211 21.5498067 15.57438485 23.97412241 16.95214844 26.39990234 C20.0921327 31.9249637 23.263434 37.43196583 26.4375 42.9375 C27.05351074 44.00709961 27.66952148 45.07669922 28.30419922 46.17871094 C33.43636593 55.06985378 38.67494272 63.89563334 43.92700195 72.71630859 C49.59529175 82.26107995 55.11905965 91.88381715 60.59741211 101.53857422 C63.95227801 107.44631131 67.35777781 113.30284921 70.94677734 119.07202148 C72 121 72 121 72 123 C73.00450195 123.08846191 74.00900391 123.17692383 75.04394531 123.26806641 C81.91463974 124.13362278 88.59496666 126.01292534 95.296875 127.7109375 C96.77797745 128.08361538 98.25911824 128.45614091 99.74029541 128.82852173 C102.83082838 129.60688307 105.92034243 130.38915022 109.00927734 131.17382812 C112.96337636 132.1776308 116.92062288 133.16836806 120.87882614 134.15584373 C123.93279951 134.91984034 126.98457912 135.69232247 130.03580475 136.46721268 C131.49426316 136.83619373 132.95348536 137.20216961 134.41347504 137.5650444 C136.4521679 138.0727636 138.48751371 138.59224647 140.52246094 139.11474609 C141.67969666 139.40707123 142.83693237 139.69939636 144.02923584 140.00057983 C146.93851188 140.97931426 148.76774141 141.91475664 151 144 C152.92462502 149.5325709 151.18544466 154.60763276 149.76171875 160.0703125 C149.52089066 161.0289621 149.28006256 161.98761169 149.03193665 162.97531128 C148.52202377 164.99552519 148.00645386 167.0143186 147.4855957 169.03173828 C146.68922222 172.11832503 145.91054647 175.20896163 145.13476562 178.30078125 C144.63644683 180.26588652 144.1371316 182.23073944 143.63671875 184.1953125 C143.40329269 185.11829132 143.16986664 186.04127014 142.92936707 186.99221802 C142.70606216 187.85346283 142.48275726 188.71470764 142.25268555 189.60205078 C141.96170235 190.73406418 141.96170235 190.73406418 141.6648407 191.88894653 C140.70143622 194.94802275 139.85245293 197.3606603 137.25 199.3125 C134.11082448 200.27169252 132.13830576 199.91533918 129 199 C126.625 197.375 126.625 197.375 125 195 C124.66289568 189.87640859 125.42698486 185.31442332 126.71484375 180.38671875 C126.89004044 179.69109329 127.06523712 178.99546783 127.2457428 178.27876282 C127.61431655 176.82149812 127.98680161 175.36521753 128.36303711 173.90991211 C128.9398725 171.67832155 129.5051275 169.44404316 130.06835938 167.20898438 C130.4290259 165.78889431 130.79033125 164.3689663 131.15234375 162.94921875 C131.40708717 161.94770027 131.40708717 161.94770027 131.66697693 160.9259491 C132.8821014 156.23579721 132.8821014 156.23579721 134 154 C132.9999292 153.91314941 131.9998584 153.82629883 130.96948242 153.73681641 C124.01972242 152.86093751 117.26579947 150.93349317 110.48828125 149.2109375 C108.95504463 148.82511837 107.42169145 148.43976216 105.88822937 148.05484009 C101.84597766 147.03905632 97.80511396 146.01786082 93.7645874 144.99523926 C87.3945587 143.38398271 81.02252185 141.78067256 74.65050888 140.17728424 C73.08685151 139.78376472 71.52324504 139.39004292 69.95969009 138.99611664 C54.99763246 135.22753029 40.00821922 131.58027105 25 128 C25.35529282 128.57322998 25.71058563 129.14645996 26.0766449 129.73706055 C38.35836863 149.55362935 50.60593033 169.39065227 62.71069336 189.31591797 C67.78191495 197.65729955 72.89975703 205.96959369 78.02148438 214.2800293 C83.12329295 222.56303119 88.19032139 230.86669231 93.24267578 239.17993164 C97.47038927 246.13534167 101.72077345 253.07615829 106 260 C108.16977658 256.25563072 109.05521532 252.22508009 110.05859375 248.05859375 C110.44823642 246.49015204 110.83822072 244.92179516 111.22851562 243.35351562 C111.83606735 240.89008902 112.4402986 238.42596105 113.03833008 235.96020508 C113.6191465 233.57393636 114.21296165 231.19120075 114.80859375 228.80859375 C115.07125282 227.70226845 115.07125282 227.70226845 115.33921814 226.57359314 C117.01639198 219.92705497 117.01639198 219.92705497 120 218 C124.31944059 217.52006216 126.73635524 217.27340427 130.5 219.4375 C133.98761767 225.39551351 131.77311149 232.89519744 130.14476013 239.20977783 C129.87913773 240.1975824 129.61351532 241.18538696 129.33984375 242.203125 C129.07111954 243.24394226 128.80239532 244.28475952 128.52552795 245.3571167 C127.67311283 248.65751744 126.80704404 251.95407371 125.9375 255.25 C124.78858535 259.60631459 123.65373011 263.96593819 122.52734375 268.328125 C122.25969711 269.32402649 121.99205048 270.31992798 121.71629333 271.3460083 C121.3558065 272.74336212 121.3558065 272.74336212 120.98803711 274.16894531 C120.66493813 275.39064423 120.66493813 275.39064423 120.33531189 276.63702393 C119.66659526 281.3495362 121.20555898 284.76070474 123.58984375 288.73828125 C124.38745117 290.07934937 124.38745117 290.07934937 125.20117188 291.44750977 C126.0606543 292.86567993 126.0606543 292.86567993 126.9375 294.3125 C127.52724609 295.29726318 128.11699219 296.28202637 128.72460938 297.29663086 C132.1008464 302.91561472 135.52264866 308.50556331 139 314.0625 C139.38518799 314.67971924 139.77037598 315.29693848 140.16723633 315.93286133 C142.57367611 319.77288314 145.02861258 323.57761114 147.5078125 327.37109375 C148.71374785 329.24726332 149.91947875 331.12356433 151.125 333 C151.70636719 333.87277588 152.28773438 334.74555176 152.88671875 335.64477539 C156.29376776 340.98881386 158.36422795 344.64243283 157 351 C153.02671998 356.13212147 146.59000436 359.24057695 141.0625 362.4375 C139.2735489 363.49147119 137.48584084 364.54755437 135.69921875 365.60546875 C134.7664209 366.1576709 133.83362305 366.70987305 132.87255859 367.27880859 C127.99690655 370.20022172 123.18716744 373.22553675 118.375 376.25 C109.94267618 381.54307011 101.48507484 386.79189776 93 392 C83.56779752 397.79072727 74.16410954 403.62459278 64.79296875 409.51367188 C63.90222656 410.07248047 63.01148438 410.63128906 62.09375 411.20703125 C61.16393311 411.829729 60.23411621 412.45242676 59.27612305 413.09399414 C56.62707024 414.63517868 54.49004947 415.56736832 51.63989258 416.54467773 C45.63709384 418.90579869 40.16065029 421.72931382 37.1276474 427.72426987 C32.64872138 438.51861753 30.59912351 450.35578361 28.24780273 461.75286865 C26.7738428 468.81519192 25.16242958 475.84780416 23.56495094 482.88298225 C23.02052265 485.33149901 22.50821756 487.78497066 22.00163269 490.24156189 C21.67689025 491.74243264 21.35174236 493.24321573 21.02612305 494.74389648 C20.8947142 495.42289001 20.76330536 496.10188354 20.62791443 496.80145264 C19.87298103 500.17609786 19.0540713 501.94406514 16.63047791 504.45118713 C8.50580491 509.23495591 -6.53705403 502.57864779 -15.1796875 500.40625 C-17.0744053 499.93539392 -18.96927561 499.46515113 -20.86428833 498.9954834 C-25.8595028 497.75567942 -30.85259161 496.50751663 -35.84527588 495.25756836 C-40.79142325 494.02080732 -45.73956214 492.79207393 -50.6875 491.5625 C-53.61230651 490.83483662 -56.53705758 490.10695078 -59.46179962 489.37902832 C-61.3962928 488.89778114 -63.33087821 488.41690453 -65.26555634 487.93640137 C-74.56026972 485.62767239 -83.85195489 483.31201765 -93.11731529 480.88773346 C-96.47885472 480.0087012 -99.84299668 479.13987714 -103.20730972 478.27153015 C-104.76599669 477.86567826 -106.32324776 477.45426559 -107.87890244 477.03694153 C-110.00208146 476.46740164 -112.12929133 475.91640817 -114.25830078 475.36914062 C-115.44674591 475.05481079 -116.63519104 474.74048096 -117.85964966 474.41662598 C-123.46474551 473.67300559 -127.37926526 476.6911954 -132.09375 479.45703125 C-132.67380295 479.79648773 -133.2538559 480.13594421 -133.85148621 480.48568726 C-135.7366105 481.59078445 -137.61844551 482.70133733 -139.5 483.8125 C-140.80574195 484.58049096 -142.11148742 485.34847594 -143.41723633 486.11645508 C-152.84178343 491.6716392 -162.17770496 497.36061195 -171.44921875 503.16796875 C-172.96609047 504.11206812 -174.48301921 505.0560759 -176 506 C-176.87374268 506.55099365 -177.74748535 507.1019873 -178.64770508 507.66967773 C-179.5270874 508.21438721 -180.40646973 508.75909668 -181.3125 509.3203125 C-182.50359375 510.06498779 -182.50359375 510.06498779 -183.71875 510.82470703 C-187.52243894 512.78435585 -189.78769779 512.78534448 -194 512 C-197.70948003 508.77535552 -200.18066555 505.39987619 -202.609375 501.15234375 C-202.93306061 500.59242737 -203.25674622 500.03251099 -203.59024048 499.45562744 C-204.28636696 498.2500328 -204.97907283 497.04245765 -205.66864014 495.83309937 C-207.54098203 492.55092641 -209.44014587 489.28429014 -211.3359375 486.015625 C-211.72476105 485.34375656 -212.11358459 484.67188812 -212.51419067 483.97966003 C-216.37360058 477.32389772 -220.36224921 470.75184458 -224.375 464.1875 C-230.96617384 453.39296069 -237.45291112 442.5399163 -243.89047241 431.65310669 C-247.98992588 424.72100213 -252.10111871 417.79844384 -256.3125 410.93359375 C-256.97032471 409.86085205 -257.62814941 408.78811035 -258.3059082 407.68286133 C-259.52943735 405.69444787 -260.75692906 403.70846538 -261.98901367 401.7253418 C-262.78915894 400.42657104 -262.78915894 400.42657104 -263.60546875 399.1015625 C-264.07106201 398.35213379 -264.53665527 397.60270508 -265.01635742 396.83056641 C-266 395 -266 395 -266 393 C-266.94697754 392.79826172 -267.89395508 392.59652344 -268.86962891 392.38867188 C-282.76490896 389.38486474 -296.56000465 385.97606348 -310.34570312 382.50927734 C-313.05510978 381.82869205 -315.76637781 381.15637078 -318.47949219 380.49072266 C-322.43569616 379.52002045 -326.38585386 378.52656951 -330.3359375 377.53125 C-331.54937836 377.23633667 -332.76281921 376.94142334 -334.01303101 376.63757324 C-335.1358548 376.35047485 -336.25867859 376.06337646 -337.41552734 375.76757812 C-338.89295914 375.39928894 -338.89295914 375.39928894 -340.40023804 375.02355957 C-343.54152871 373.78679321 -345.03994569 372.76267696 -347 370 C-347.59989676 364.70018727 -346.46187219 359.88254564 -345.13916016 354.77783203 C-344.94064453 353.98435364 -344.74212891 353.19087524 -344.53759766 352.37335205 C-343.87914203 349.74949224 -343.20908037 347.12874142 -342.5390625 344.5078125 C-342.069008 342.64324901 -341.59973468 340.77848844 -341.13119507 338.9135437 C-339.88948386 333.97910071 -338.63817106 329.04714422 -337.38452148 324.11572266 C-336.15120617 319.25937018 -334.92513006 314.40119462 -333.69921875 309.54296875 C-333.45881237 308.59053661 -333.21840599 307.63810448 -332.97071457 306.65681076 C-330.79354977 298.02962521 -328.62037268 289.40143957 -326.45178223 280.77209473 C-325.47005673 276.86596221 -324.48485055 272.9607285 -323.49743652 269.05603027 C-322.28475436 264.25664536 -321.08326499 259.45458075 -319.88965988 254.65041733 C-319.44110422 252.85233494 -318.98887981 251.05516335 -318.53279495 249.25897598 C-317.90570511 246.78680755 -317.29183828 244.31171267 -316.68115234 241.83544922 C-316.40071138 240.74876009 -316.40071138 240.74876009 -316.11460495 239.64011765 C-314.89626065 234.61348313 -314.85888706 231.25996597 -317.18896484 226.64526367 C-317.94234131 225.41900269 -317.94234131 225.41900269 -318.7109375 224.16796875 C-319.2874707 223.21954102 -319.86400391 222.27111328 -320.45800781 221.29394531 C-321.09061523 220.26881836 -321.72322266 219.24369141 -322.375 218.1875 C-323.37897899 216.53863662 -324.38291523 214.88974659 -325.38537598 213.23995972 C-326.10126047 212.0621471 -326.81799754 210.88485232 -327.53552246 209.70803833 C-332.17328498 202.09489551 -336.70675933 194.41976601 -341.25 186.75 C-342.47803208 184.67880185 -343.70636679 182.60778356 -344.93484497 180.53684998 C-345.67226492 179.29362132 -346.40948299 178.05027288 -347.14645386 176.80677795 C-348.64081863 174.28608764 -350.14092423 171.77845587 -351.71386719 169.30566406 C-353.56908545 165.97979442 -353.53461629 163.74231403 -353 160 C-349.61421914 156.06087196 -345.78253107 153.41114987 -341.3203125 150.84765625 C-340.67981964 150.47119461 -340.03932678 150.09473297 -339.37942505 149.7068634 C-338.00949068 148.90271768 -336.63755366 148.10197544 -335.26379395 147.30438232 C-332.35624094 145.61612306 -329.45861832 143.91114529 -326.56030273 142.20709229 C-325.09872339 141.34796902 -323.63664642 140.48969179 -322.17407227 139.63226318 C-316.1625575 136.10629828 -310.19493837 132.51215562 -304.25 128.875 C-303.34386963 128.32166992 -302.43773926 127.76833984 -301.50415039 127.19824219 C-299.6448895 126.06249088 -297.78592446 124.92625514 -295.92724609 123.78955078 C-291.64026656 121.16873677 -287.35105007 118.55163425 -283.05761719 115.94140625 C-280.72945344 114.52558037 -278.40658553 113.10156666 -276.08691406 111.671875 C-270.29065556 108.11411619 -264.46287724 104.66880919 -258.47947693 101.43321228 C-255.52370756 99.83110277 -252.58784023 98.19415636 -249.65206909 96.55575562 C-248.23654005 95.77911054 -246.81137758 95.01972851 -245.37649536 94.27944946 C-243.35934817 93.23730979 -241.38395655 92.13820994 -239.40625 91.0234375 C-238.26478516 90.41419434 -237.12332031 89.80495117 -235.94726562 89.17724609 C-231.24254346 85.3276045 -230.66737383 78.6523464 -229.43916321 72.99510193 C-228.7713393 69.96120306 -227.99592657 66.95561134 -227.23242188 63.94458008 C-226.64414849 61.55299125 -226.05626847 59.16130564 -225.46875 56.76953125 C-224.65092787 53.47848137 -223.83165378 50.1878007 -223.01145172 46.89734364 C-222.1642525 43.49499813 -221.32233815 40.0914935 -220.49072266 36.68530273 C-219.51963947 32.70944915 -218.52597728 28.73953525 -217.53125 24.76953125 C-217.23633667 23.54667923 -216.94142334 22.32382721 -216.63757324 21.06391907 C-216.35047485 19.9314122 -216.06337646 18.79890533 -215.76757812 17.63208008 C-215.522052 16.63807693 -215.27652588 15.64407379 -215.02355957 14.61994934 C-213.83127328 11.56811947 -212.55985031 10.02820745 -210 8 C-203.36993471 7.24845604 -197.31129758 8.85434171 -190.89453125 10.44921875 C-189.85229904 10.70371292 -188.81006683 10.95820709 -187.73625183 11.22041321 C-185.54406568 11.75946763 -183.3531034 12.30352118 -181.16333008 12.85229492 C-177.81718461 13.68633235 -174.46487138 14.49122069 -171.11132812 15.29492188 C-168.97612442 15.8237552 -166.84134283 16.35429636 -164.70703125 16.88671875 C-163.70799271 17.12339767 -162.70895416 17.3600766 -161.67964172 17.60392761 C-156.05195162 19.04800784 -152.53748424 20.28381622 -149 25 C-148.16299507 29.01762368 -148.66648256 30.47748934 -150.875 33.9375 C-155.4711649 36.97096884 -158.70217714 35.92768442 -164 35 C-170.41387724 33.64544125 -176.76706814 32.03001171 -183.125 30.4375 C-184.86182315 30.00783238 -186.59880123 29.57879053 -188.3359375 29.15039062 C-192.55911368 28.10747133 -196.78009878 27.05608899 -201 26 C-201.17582863 27.6807386 -201.17582863 27.6807386 -201.35520935 29.39543152 C-201.96678985 34.25920604 -203.10436395 38.92877482 -204.31665039 43.6730957 C-204.55088211 44.60578781 -204.78511383 45.53847992 -205.02644348 46.49943542 C-205.53232398 48.51114126 -206.04039089 50.52229832 -206.55043221 52.53295326 C-207.35715113 55.71321208 -208.15810004 58.89487594 -208.95762634 62.07695007 C-210.3658767 67.67776288 -211.77916963 73.2772886 -213.19415283 78.87640381 C-215.46328544 87.85548289 -217.72843771 96.83555187 -219.98657036 105.81740379 C-220.77683524 108.95524172 -221.57152215 112.09193771 -222.36647034 115.22859192 C-222.84875383 117.14363853 -223.33085512 119.05873104 -223.81274414 120.97387695 C-224.03559082 121.84819366 -224.2584375 122.72251038 -224.48803711 123.62332153 C-224.68853165 124.42364304 -224.88902618 125.22396454 -225.09559631 126.04853821 C-225.27128175 126.74331929 -225.44696718 127.43810038 -225.62797642 128.15393543 C-226.09877552 130.17628345 -226.09877552 130.17628345 -226 133 C-214.23549582 126.11366868 -202.53207303 119.14577323 -190.95898438 111.94189453 C-184.600155 107.98473883 -178.21465956 104.07413433 -171.8125 100.1875 C-163.62749425 95.21694405 -155.46337031 90.21382902 -147.3125 85.1875 C-140.39336434 80.92073449 -133.46661604 76.66775735 -126.515625 72.453125 C-125.89137131 72.07460892 -125.26711761 71.69609283 -124.62394714 71.30610657 C-121.61757459 69.48400267 -118.60997076 67.66396405 -115.60083008 65.84643555 C-108.6743149 61.65462138 -101.80950911 57.37943225 -95 53 C-99.8890203 51.28401987 -104.72842859 49.77293124 -109.76953125 48.5703125 C-110.76017578 48.33183594 -111.75082031 48.09335937 -112.77148438 47.84765625 C-114.81559207 47.36190169 -116.8625786 46.88812027 -118.91210938 46.42578125 C-126.33441495 44.60787537 -126.33441495 44.60787537 -129.703125 41.53125 C-131.53164513 37.96233119 -131.05698231 35.8051363 -130 32 C-128.44566105 29.98230033 -127.59360221 29.11372391 -125.06938171 28.63012695 C-119.31402911 28.75131018 -114.13005746 29.6886769 -108.58203125 31.1875 C-107.72115402 31.40946045 -106.86027679 31.6314209 -105.97331238 31.86010742 C-103.25026076 32.56319314 -100.53120194 33.28029388 -97.8125 34 C-95.08279739 34.71840623 -92.35238679 35.43348766 -89.61955261 36.13989258 C-87.92698518 36.57774799 -86.23619376 37.02254661 -84.54756165 37.4753418 C-76.76900227 39.52261325 -76.76900227 39.52261325 -69.11352539 37.66162109 C-68.11828857 37.03852051 -67.12305176 36.41541992 -66.09765625 35.7734375 C-65.54686401 35.43397598 -64.99607178 35.09451447 -64.42858887 34.74476624 C-62.63198256 33.63370293 -60.8475329 32.50454443 -59.0625 31.375 C-57.81260327 30.59769432 -56.56186006 29.82174822 -55.31030273 29.04711914 C-52.7643107 27.46947581 -50.22245135 25.88548403 -47.68359375 24.29638672 C-41.39778866 20.36837367 -35.04800109 16.54476296 -28.70507812 12.70996094 C-24.75360938 10.31397757 -20.82114348 7.90836596 -16.96875 5.35546875 C-6.64482251 -1.44977946 -6.64482251 -1.44977946 0 0 Z M-12.3125 21.5 C-13.20928467 22.04889893 -14.10606934 22.59779785 -15.0300293 23.16333008 C-16.50016479 24.07248169 -16.50016479 24.07248169 -18 25 C-19.02456299 25.62865967 -20.04912598 26.25731934 -21.10473633 26.9050293 C-24.40598493 28.9321293 -27.70327051 30.96556008 -31 33 C-34.1636895 34.94871619 -37.32780509 36.89673916 -40.49194336 38.84472656 C-42.64029202 40.16764582 -44.7882348 41.49122441 -46.93579102 42.81542969 C-54.48404001 47.46583489 -62.05723154 52.07316107 -69.64212036 56.66345215 C-81.17871226 63.64529536 -92.63754874 70.73754655 -104 78 C-100.73220439 79.80933233 -97.53062465 80.7442708 -93.91378784 81.65190125 C-92.6658847 81.96741943 -91.41798157 82.28293762 -90.13226318 82.60801697 C-88.75209968 82.95191101 -87.37191083 83.29570338 -85.99169922 83.6394043 C-84.53614829 84.00546604 -83.08069616 84.3719208 -81.62533569 84.73873901 C-77.67627175 85.73269848 -73.72572258 86.72062695 -69.7747817 87.70709586 C-66.47875924 88.53056684 -63.18344116 89.35683709 -59.88810933 90.18306667 C-52.11838738 92.13104353 -44.3474229 94.07400475 -36.57568359 96.01391602 C-28.54860192 98.0176617 -20.52372315 100.03005439 -12.49986255 102.04665631 C-5.61530035 103.77658881 1.27060772 105.50108523 8.15762699 107.22120982 C12.27315431 108.2491831 16.38812448 109.27926742 20.50180435 110.31461143 C24.36617053 111.28696425 28.23216514 112.25254526 32.09954453 113.21284103 C33.52160139 113.56716675 34.94305508 113.92392304 36.36386108 114.28323174 C38.29686223 114.77166856 40.23224858 115.25063736 42.16775513 115.72904968 C43.79430118 116.135812 43.79430118 116.135812 45.45370674 116.55079174 C47.98157005 117.25746699 47.98157005 117.25746699 50 116 C41.72422459 101.25422421 33.31008706 86.59663382 24.76171875 72.00732422 C21.85726309 67.04930249 18.9590948 62.08761747 16.0625 57.125 C15.49781006 56.15763916 14.93312012 55.19027832 14.35131836 54.19360352 C7.52472727 42.48716052 0.76124417 30.74426683 -6 19 C-8.7195796 19 -9.99607989 20.0745107 -12.3125 21.5 Z M-106 95 C-104.54589791 98.92788198 -102.69909033 102.41467245 -100.578125 106.0234375 C-100.24113083 106.59847519 -99.90413666 107.17351288 -99.55693054 107.76597595 C-98.45829222 109.63783759 -97.3543691 111.50651463 -96.25 113.375 C-95.48891534 114.66815502 -94.72792994 115.96136847 -93.96704102 117.25463867 C-87.09815487 128.90944018 -80.08664155 140.47632681 -73 152 C-69.23931756 151.32236919 -66.41634901 149.64422647 -63.14453125 147.7109375 C-62.57354706 147.37535324 -62.00256287 147.03976898 -61.41427612 146.6940155 C-59.54392115 145.59282925 -57.67806322 144.48428192 -55.8125 143.375 C-54.52009078 142.61033767 -53.22752727 141.84593607 -51.93481445 141.08178711 C-49.2765995 139.50901147 -46.62054548 137.93266216 -43.96582031 136.35400391 C-40.76207343 134.44992348 -37.55130573 132.55814084 -34.33729553 130.67144775 C-31.45028179 128.97479015 -28.56928434 127.26802434 -25.6875 125.5625 C-24.60895752 124.93069824 -23.53041504 124.29889648 -22.41918945 123.64794922 C-21.43909912 123.06416504 -20.45900879 122.48038086 -19.44921875 121.87890625 C-18.58643311 121.3691626 -17.72364746 120.85941895 -16.8347168 120.33422852 C-15.92653198 119.6737854 -15.92653198 119.6737854 -15 119 C-15 118.34 -15 117.68 -15 117 C-26.42092442 114.12741087 -37.84279237 111.25860767 -49.26588917 108.39466858 C-54.56974 107.06478765 -59.87325371 105.73359211 -65.17602539 104.39941406 C-70.29103121 103.11252893 -75.40688505 101.82906854 -80.52335167 100.54800415 C-82.47773691 100.05801933 -84.43181047 99.56678964 -86.38556862 99.0743103 C-89.1166704 98.38611113 -91.8488349 97.70229875 -94.58129883 97.01953125 C-95.39337799 96.813815 -96.20545715 96.60809875 -97.04214478 96.39614868 C-100.10129307 95.63559758 -102.83456249 95 -106 95 Z M-142.8046875 101.24609375 C-143.99904419 101.99403198 -143.99904419 101.99403198 -145.2175293 102.75708008 C-146.09449463 103.31161865 -146.97145996 103.86615723 -147.875 104.4375 C-149.79482747 105.63921256 -151.71544121 106.83966964 -153.63671875 108.0390625 C-154.66716309 108.68262695 -155.69760742 109.32619141 -156.75927734 109.98925781 C-161.79201903 113.11187801 -166.8578659 116.17957794 -171.92507935 119.24578857 C-181.5381142 125.06411242 -191.14377225 130.89497524 -200.72549438 136.76473999 C-202.39524962 137.78664246 -204.06710567 138.80510977 -205.73901367 139.82348633 C-206.7519751 140.44505615 -207.76493652 141.06662598 -208.80859375 141.70703125 C-209.69345459 142.2481958 -210.57831543 142.78936035 -211.48999023 143.34692383 C-214.13065865 145.08605094 -216.56177141 146.98916599 -219 149 C-206.25484542 152.63176443 -193.45103944 155.97238774 -180.58081055 159.13183594 C-177.51217462 159.88739104 -174.44659611 160.65465174 -171.38085938 161.421875 C-169.42205152 161.90436302 -167.4630735 162.38616089 -165.50390625 162.8671875 C-164.59153702 163.09727509 -163.67916779 163.32736267 -162.739151 163.56442261 C-161.89654221 163.76858795 -161.05393341 163.9727533 -160.18579102 164.18310547 C-159.44732437 164.36565887 -158.70885773 164.54821228 -157.94801331 164.73629761 C-155.78853468 165.1743071 -155.78853468 165.1743071 -153 164 C-151.92985564 161.29905072 -151.92985564 161.29905072 -151.19067383 157.91967773 C-151.03417862 157.28554962 -150.87768341 156.65142151 -150.71644592 155.99807739 C-150.2009452 153.89604592 -149.7039963 151.79007745 -149.20703125 149.68359375 C-148.85372618 148.22743199 -148.49927538 146.77154778 -148.14372253 145.31593323 C-147.21000014 141.4799255 -146.29193334 137.64033406 -145.37701416 133.79980469 C-144.44105967 129.88314531 -143.49043412 125.97005373 -142.54101562 122.05664062 C-140.67958637 114.37452025 -138.83467168 106.68855436 -137 99 C-139.58731059 99 -140.61885903 99.86574485 -142.8046875 101.24609375 Z M-122 103 C-124.08890335 111.30933091 -126.17528442 119.61928923 -128.25842285 127.93006706 C-129.22572258 131.78881616 -130.19389906 135.6473409 -131.1640625 139.50537109 C-132.09979115 143.22660023 -133.03323857 146.94839468 -133.96508789 150.67059708 C-134.3215162 152.09260683 -134.6787746 153.51440877 -135.03686523 154.93600082 C-135.53717388 156.92277792 -136.03456122 158.91026457 -136.53125 160.89794922 C-136.81548828 162.03046112 -137.09972656 163.16297302 -137.39257812 164.32980347 C-138.07393841 166.86862725 -138.07393841 166.86862725 -138 169 C-135.20960617 169.79638691 -132.41781108 170.58717057 -129.625 171.375 C-128.85027344 171.59671875 -128.07554687 171.8184375 -127.27734375 172.046875 C-125.67841226 172.49616153 -124.07405741 172.9265081 -122.46533203 173.33935547 C-120 174 -120 174 -117.59326172 174.85205078 C-113.5510906 176.08227677 -111.05511327 176.41494005 -107.05615234 174.84228516 C-103.88368281 173.07227466 -100.88502501 171.15849018 -97.875 169.125 C-96.823125 168.44824219 -95.77125 167.77148438 -94.6875 167.07421875 C-92.10664111 165.40839165 -89.54663834 163.71750028 -87 162 C-87.54787728 158.65838057 -88.27297516 156.13860857 -90.0546875 153.26171875 C-90.71609741 152.17769775 -90.71609741 152.17769775 -91.39086914 151.07177734 C-91.88063232 150.28496582 -92.37039551 149.4981543 -92.875 148.6875 C-93.95592362 146.92409355 -95.03522939 145.1596948 -96.11328125 143.39453125 C-96.71994629 142.40275879 -97.32661133 141.41098633 -97.95166016 140.38916016 C-100.30759373 136.49105886 -102.61575436 132.56669251 -104.91796875 128.63671875 C-105.7754496 127.17677823 -106.63303456 125.71689885 -107.49072266 124.25708008 C-108.77605335 122.06918149 -110.05943458 119.88026275 -111.33660889 117.68759155 C-112.54249542 115.61878973 -113.75669909 113.55508173 -114.97265625 111.4921875 C-115.33473679 110.86595993 -115.69681732 110.23973236 -116.06987 109.5945282 C-117.85337593 106.58593747 -119.03430877 104.97712749 -122 103 Z M-246.2109375 112.55859375 C-247.15753738 113.12159431 -247.15753738 113.12159431 -248.1232605 113.69596863 C-250.20984008 114.93873584 -252.29246574 116.18796762 -254.375 117.4375 C-255.83155501 118.30738133 -257.2882625 119.17700737 -258.74511719 120.04638672 C-271.35893144 127.58238557 -283.92159665 135.20213495 -296.46777344 142.85009766 C-300.22702189 145.13991284 -303.99219958 147.41989018 -307.7578125 149.69921875 C-309.67724108 150.86173717 -311.59661829 152.02434037 -313.51599121 153.18695068 C-314.73880534 153.92731168 -315.96186181 154.66727259 -317.18518066 155.40679932 C-318.88200787 156.43273441 -320.57774319 157.46047475 -322.2734375 158.48828125 C-323.23685059 159.07134033 -324.20026367 159.65439941 -325.19287109 160.25512695 C-328.17480471 162.10865622 -331.08859807 164.03799166 -334 166 C-330.8983904 172.39717341 -327.58644435 178.56325753 -323.875 184.625 C-322.8128813 186.3770463 -321.7517549 188.12969439 -320.69140625 189.8828125 C-319.81572998 191.32962402 -319.81572998 191.32962402 -318.92236328 192.80566406 C-316.79646419 196.33820962 -314.69028879 199.88197016 -312.58984375 203.4296875 C-312.20367386 204.08192795 -311.81750397 204.7341684 -311.41963196 205.40617371 C-310.62193957 206.75373461 -309.8242972 208.10132514 -309.02670288 209.44894409 C-301.576283 222.03434309 -294.05210062 234.57192525 -286.4309082 247.0546875 C-283.21278393 252.3306895 -280.02370156 257.6099233 -277 263 C-275.00742265 260.01113398 -274.36500426 258.04181929 -273.52734375 254.59765625 C-273.26759766 253.54255859 -273.00785156 252.48746094 -272.74023438 251.40039062 C-272.47533203 250.29888672 -272.21042969 249.19738281 -271.9375 248.0625 C-271.66873047 246.96486328 -271.39996094 245.86722656 -271.12304688 244.73632812 C-270.62354994 242.69474338 -270.12646921 240.65256491 -269.63256836 238.60961914 C-269.09790088 236.40388366 -268.55389726 234.20097005 -268 232 C-260.01541002 230.43037975 -260.01541002 230.43037975 -256.4375 232.4375 C-252.82406744 238.87883631 -255.71221502 246.66227149 -257.5625 253.3125 C-258.05054166 255.07735038 -258.53135778 256.8442195 -259.00390625 258.61328125 C-259.21861572 259.38454346 -259.4333252 260.15580566 -259.65454102 260.95043945 C-260.19714447 263.19108035 -260.19714447 263.19108035 -259 266 C-240.14113814 254.9746429 -221.51184348 243.59778146 -203 232 C-203.67763081 228.23931756 -205.35577353 225.41634901 -207.2890625 222.14453125 C-207.62464676 221.57354706 -207.96023102 221.00256287 -208.3059845 220.41427612 C-209.40717075 218.54392115 -210.51571808 216.67806322 -211.625 214.8125 C-212.38966233 213.52009078 -213.15406393 212.22752727 -213.91821289 210.93481445 C-215.49098853 208.2765995 -217.06733784 205.62054548 -218.64599609 202.96582031 C-220.55007652 199.76207343 -222.44185916 196.55130573 -224.32855225 193.33729553 C-226.02520985 190.45028179 -227.73197566 187.56928434 -229.4375 184.6875 C-230.06930176 183.60895752 -230.70110352 182.53041504 -231.35205078 181.41918945 C-232.22772705 179.94905396 -232.22772705 179.94905396 -233.12109375 178.44921875 C-233.6308374 177.58643311 -234.14058105 176.72364746 -234.66577148 175.8347168 C-235.10606689 175.22926025 -235.5463623 174.62380371 -236 174 C-236.66 174 -237.32 174 -238 174 C-238.39324463 175.57467041 -238.39324463 175.57467041 -238.79443359 177.18115234 C-239.76768268 181.07048158 -240.75011189 184.9574425 -241.73535156 188.84375 C-242.16071886 190.52703554 -242.583584 192.21095542 -243.00390625 193.89550781 C-243.60803153 196.31485856 -244.22107867 198.73179547 -244.8359375 201.1484375 C-245.02247894 201.9036972 -245.20902039 202.65895691 -245.4012146 203.43710327 C-246.77225659 208.77225659 -246.77225659 208.77225659 -249 211 C-255.90410959 211.54794521 -255.90410959 211.54794521 -259 210 C-261.85613386 204.28773228 -259.50419837 196.90824763 -257.98046875 191.0612793 C-257.7658902 190.20661575 -257.55131165 189.35195221 -257.33023071 188.47138977 C-256.62471207 185.67004447 -255.90607571 182.8722403 -255.1875 180.07421875 C-254.69332802 178.12009186 -254.20009674 176.16572687 -253.70776367 174.21113586 C-252.41380761 169.08271141 -251.10917533 163.95706813 -249.80163574 158.83209229 C-247.70626008 150.61252099 -245.62616212 142.38907836 -243.54800415 134.16514015 C-242.82043359 131.29303679 -242.08769353 128.42228947 -241.35424805 125.55168152 C-240.90921202 123.79840346 -240.46429963 122.04509402 -240.01953125 120.29174805 C-239.813815 119.49223724 -239.60809875 118.69272644 -239.39614868 117.86898804 C-238.63016584 114.83583183 -238 112.14192728 -238 109 C-241.18258756 109 -243.54989063 110.95673249 -246.2109375 112.55859375 Z M-7 132 C-26.03144587 143.28134809 -45.04376897 154.59259594 -64 166 C-58.3422366 180.96896105 -58.3422366 180.96896105 -47.83496094 192.38378906 C-43.51610052 194.21676151 -39.0825488 195.09832261 -34.43991089 195.66421509 C-31.83964105 196.02206889 -29.29076678 196.51167275 -26.71923828 197.03662109 C-25.38785324 197.30712784 -25.38785324 197.30712784 -24.02957153 197.58309937 C-23.02493362 197.78946518 -23.02493362 197.78946518 -22 198 C-19.88685434 189.840115 -17.78261674 181.67800752 -15.68976498 173.51289654 C-14.71772635 169.72172413 -13.74261901 165.93139645 -12.76049805 162.14282227 C-11.81310432 158.48774624 -10.87377291 154.83068559 -9.94003487 151.17209816 C-9.58208131 149.77549074 -9.22121128 148.37962751 -8.85740471 146.98453331 C-8.3490019 145.0329322 -7.85184547 143.07841175 -7.35522461 141.1237793 C-6.92553627 139.4549897 -6.92553627 139.4549897 -6.48716736 137.75248718 C-5.76082132 134.92299036 -5.76082132 134.92299036 -7 132 Z M10 136 C6.42538803 148.59307439 3.09749407 161.23728706 -0.0769043 173.93701172 C-0.82415649 176.92155633 -1.57898657 179.9041253 -2.33398438 182.88671875 C-2.81295821 184.79676015 -3.29149095 186.70691224 -3.76953125 188.6171875 C-3.99445755 189.50252167 -4.21938385 190.38785583 -4.4511261 191.30001831 C-4.65521591 192.12253082 -4.85930573 192.94504333 -5.06958008 193.79248047 C-5.34007927 194.87020218 -5.34007927 194.87020218 -5.61604309 195.96969604 C-6.12387961 198.31067417 -6.12387961 198.31067417 -6 202 C6.59307439 205.57461197 19.23728706 208.90250593 31.93701172 212.0769043 C34.92155633 212.82415649 37.9041253 213.57898657 40.88671875 214.33398438 C42.79676015 214.81295821 44.70691224 215.29149095 46.6171875 215.76953125 C47.50252167 215.99445755 48.38785583 216.21938385 49.30001831 216.4511261 C50.12253082 216.65521591 50.94504333 216.85930573 51.79248047 217.06958008 C52.87020218 217.34007927 52.87020218 217.34007927 53.96969604 217.61604309 C56.31067417 218.12387961 56.31067417 218.12387961 60 218 C58.6380812 214.35072976 56.99076631 211.11490014 54.98046875 207.78125 C54.07542603 206.27570557 54.07542603 206.27570557 53.15209961 204.73974609 C52.50378174 203.67062988 51.85546387 202.60151367 51.1875 201.5 C50.51533447 200.3857666 49.84316895 199.2715332 49.15063477 198.12353516 C44.44350521 190.32996497 39.67240381 182.57644424 34.86401367 174.8449707 C30.10986298 167.19838859 25.42564432 159.51020661 20.75561523 151.81201172 C19.1737251 149.20597148 17.58766753 146.60252349 16 144 C15.51144531 143.19385254 15.02289063 142.38770508 14.51953125 141.55712891 C13.37404234 139.68750392 12.19124053 137.8408119 11 136 C10.67 136 10.34 136 10 136 Z M-223 165 C-218.16964878 174.08369394 -212.95768544 182.91814728 -207.6875 191.75 C-206.87547338 193.11447762 -206.0636237 194.47906055 -205.25195312 195.84375 C-199.85705992 204.90928225 -194.4329797 213.95725376 -189 223 C-186.42468866 221.65269089 -183.88058789 220.28043565 -181.35546875 218.83984375 C-178 217 -178 217 -174.36328125 215.44140625 C-169.18722686 213.01279522 -165.21562113 210.6818607 -162.78027344 205.30908203 C-158.46760506 192.82538354 -158.46760506 192.82538354 -159 180 C-166.7525527 178.03868552 -174.50636564 176.08246651 -182.26183701 174.13272858 C-185.86302008 173.22721556 -189.46374466 172.31995778 -193.06347656 171.40869141 C-196.53781023 170.52923798 -200.01327522 169.65439562 -203.48957062 168.7827301 C-204.81524177 168.44946549 -206.14049781 168.11454512 -207.4653244 167.77793884 C-209.32180262 167.3065544 -211.17991325 166.84161316 -213.03808594 166.37695312 C-214.09509705 166.11047974 -215.15210815 165.84400635 -216.2411499 165.56945801 C-219.18340166 164.86523339 -219.18340166 164.86523339 -223 165 Z M-85.1875 179 C-86.53908203 179.8353125 -86.53908203 179.8353125 -87.91796875 180.6875 C-88.60503906 181.120625 -89.29210937 181.55375 -90 182 C-89.21434229 184.1588839 -89.21434229 184.1588839 -87.23413086 184.59423828 C-86.48526611 184.75134277 -85.73640137 184.90844727 -84.96484375 185.0703125 C-84.15595703 185.24433594 -83.34707031 185.41835937 -82.51367188 185.59765625 C-81.66353516 185.77167969 -80.81339844 185.94570312 -79.9375 186.125 C-79.08349609 186.30675781 -78.22949219 186.48851562 -77.34960938 186.67578125 C-75.23466704 187.12476342 -73.11752353 187.56335351 -71 188 C-72.18271368 184.91535487 -73.45003905 182.03493361 -75.125 179.1875 C-75.74375 178.135625 -76.3625 177.08375 -77 176 C-80.67034745 176 -82.0999431 177.0752892 -85.1875 179 Z M-142 185 C-142.53341184 186.57914015 -143.05125763 188.16354387 -143.5625 189.75 C-143.85253906 190.63171875 -144.14257812 191.5134375 -144.44140625 192.421875 C-145.25214619 195.24507061 -145.25214619 195.24507061 -144 199 C-136.08 194.05 -136.08 194.05 -128 189 C-131.14573677 186.90284215 -133.01456251 186.47995441 -136.6875 185.875 C-137.68136719 185.70742187 -138.67523438 185.53984375 -139.69921875 185.3671875 C-140.45847656 185.24601563 -141.21773437 185.12484375 -142 185 Z M-131.21252441 208.49075317 C-133.89497554 210.57141743 -136.38847199 212.18089029 -139.47509766 213.61816406 C-145.11332531 216.2743673 -148.7577774 218.67420825 -151.06933594 224.55786133 C-152.90225663 230.15670635 -154.13972349 235.87106316 -155.375 241.625 C-155.84964338 243.61046178 -156.32877586 245.59485603 -156.8125 247.578125 C-157.26177142 249.48084039 -157.70722101 251.38446315 -158.1484375 253.2890625 C-158.35342865 254.17357086 -158.5584198 255.05807922 -158.7696228 255.96939087 C-160.52927014 264.20423039 -159.32536908 269.12218241 -154.921875 276.33984375 C-154.51342346 277.02502579 -154.10497192 277.71020782 -153.68414307 278.41615295 C-152.82103867 279.86008868 -151.95341022 281.30132868 -151.08154297 282.73999023 C-149.75946413 284.92188088 -148.45083237 287.1113687 -147.14453125 289.30273438 C-146.30025718 290.71140409 -145.45522905 292.11962219 -144.609375 293.52734375 C-144.22271667 294.17235336 -143.83605835 294.81736298 -143.43768311 295.48191833 C-142.68374327 296.72405306 -141.91765251 297.95890302 -141.13893127 299.18565369 C-140.37320833 300.4054697 -139.64320276 301.64837147 -138.94883728 302.91017151 C-136.07468394 307.69009747 -133.21679647 309.1197 -127.87892151 310.52149963 C-126.96110397 310.73225632 -126.04328644 310.943013 -125.09765625 311.16015625 C-124.14233505 311.39915146 -123.18701385 311.63814667 -122.20274353 311.88438416 C-120.18950866 312.381767 -118.17297238 312.86595173 -116.15356445 313.33764648 C-113.06791068 314.0612312 -109.99649078 314.83071762 -106.92382812 315.60742188 C-104.96160827 316.08609144 -102.99873559 316.56209442 -101.03515625 317.03515625 C-100.11936295 317.26413101 -99.20356964 317.49310577 -98.26002502 317.72901917 C-90.07812589 319.6013098 -85.71726262 317.64881306 -78.60546875 313.296875 C-77.71798698 312.75646576 -77.71798698 312.75646576 -76.81257629 312.20513916 C-75.56628375 311.44474651 -74.32173352 310.6814915 -73.07885742 309.91552734 C-71.20663055 308.76178898 -69.32948712 307.61644995 -67.45117188 306.47265625 C-63.12440897 303.84016342 -63.12440897 303.84016342 -58.83721924 301.14428711 C-57.48164369 300.29998525 -56.0936512 299.5072176 -54.69061279 298.74438477 C-50.35486984 296.22737425 -47.64346669 294.29396375 -45.95263672 289.46679688 C-45.49174204 287.72672725 -45.06894754 285.97623195 -44.6796875 284.21875 C-44.44589386 283.28703979 -44.21210022 282.35532959 -43.97122192 281.39538574 C-43.48643662 279.43605965 -43.01840177 277.47252019 -42.56640625 275.50537109 C-41.87500282 272.50001224 -41.13386378 269.51048251 -40.3828125 266.51953125 C-39.91633148 264.60748555 -39.45269105 262.69474412 -38.9921875 260.78125 C-38.66587845 259.44507629 -38.66587845 259.44507629 -38.33297729 258.08190918 C-36.44594728 249.78338889 -37.65503972 244.90993333 -42.11328125 237.625 C-42.72951607 236.59366943 -42.72951607 236.59366943 -43.35820007 235.54150391 C-44.66748451 233.35556384 -45.98989382 231.17789955 -47.3125 229 C-48.19029113 227.53696079 -49.06725262 226.07342348 -49.94335938 224.609375 C-52.27459832 220.72631827 -54.61076699 216.84770566 -57 213 C-57.68481445 211.8874585 -58.36962891 210.77491699 -59.07519531 209.62866211 C-61.64671784 206.11679211 -64.37117272 205.47051483 -68.4375 204.5625 C-70.06446653 204.18908116 -71.69072176 203.81255504 -73.31640625 203.43359375 C-74.21762207 203.22460449 -75.11883789 203.01561523 -76.04736328 202.80029297 C-79.34056575 201.90769187 -82.46108711 200.74126823 -85.65234375 199.53515625 C-105.19445887 192.7033926 -115.60901797 196.33399592 -131.21252441 208.49075317 Z M-40 210 C-38.5143761 214.00375642 -36.63136615 217.61421847 -34.5 221.3125 C-33.8915625 222.38113281 -33.283125 223.44976562 -32.65625 224.55078125 C-32.1096875 225.35902344 -31.563125 226.16726562 -31 227 C-30.34 227 -29.68 227 -29 227 C-28.01 222.71 -27.02 218.42 -26 214 C-32.89171241 211.59490912 -32.89171241 211.59490912 -40 210 Z M-11 218 C-12.04034481 221.8700289 -13.05376409 225.74662291 -14.0625 229.625 C-14.35705078 230.71941406 -14.65160156 231.81382812 -14.95507812 232.94140625 C-15.22900391 234.00488281 -15.50292969 235.06835938 -15.78515625 236.1640625 C-16.04176025 237.13811035 -16.29836426 238.1121582 -16.56274414 239.11572266 C-17.4066601 244.68245809 -16.02655213 248.51163646 -13.05859375 253.1796875 C-12.18364258 254.571875 -12.18364258 254.571875 -11.29101562 255.9921875 C-10.67935547 256.94351563 -10.06769531 257.89484375 -9.4375 258.875 C-8.51420898 260.33679688 -8.51420898 260.33679688 -7.57226562 261.828125 C-6.05691457 264.22449412 -4.53268436 266.61469443 -3 269 C0.63894928 267.63150275 3.9324108 265.99539358 7.296875 264.05078125 C8.32675537 263.4568457 9.35663574 262.86291016 10.41772461 262.25097656 C11.51737549 261.6112793 12.61702637 260.97158203 13.75 260.3125 C14.88638916 259.6534668 16.02277832 258.99443359 17.19360352 258.31542969 C25.46936411 253.50745733 33.71528373 248.64891961 41.9375 243.75 C43.00258789 243.11876221 44.06767578 242.48752441 45.16503906 241.8371582 C46.64375488 240.95096802 46.64375488 240.95096802 48.15234375 240.046875 C49.01851318 239.52963867 49.88468262 239.01240234 50.77709961 238.47949219 C52.79600131 237.13577508 54.36950157 235.78380452 56 234 C43.27651231 230.3679936 30.49022092 227.05882221 17.63574219 223.9230957 C14.5787117 223.17619067 11.52373003 222.42125838 8.46875 221.66601562 C6.51313881 221.18701806 4.55741391 220.70848448 2.6015625 220.23046875 C1.69435455 220.00554245 0.78714661 219.78061615 -0.14755249 219.5488739 C-0.99008575 219.34478409 -1.83261902 219.14069427 -2.70068359 218.93041992 C-3.43692963 218.75008713 -4.17317566 218.56975433 -4.93173218 218.38395691 C-7.30486683 217.87831782 -7.30486683 217.87831782 -11 218 Z M-175.125 233 C-176.49011719 233.8353125 -176.49011719 233.8353125 -177.8828125 234.6875 C-178.58148438 235.120625 -179.28015625 235.55375 -180 236 C-178.74361009 239.3523301 -177.31266112 242.30402615 -175.375 245.3125 C-174.92898437 246.00988281 -174.48296875 246.70726562 -174.0234375 247.42578125 C-173.68570313 247.94527344 -173.34796875 248.46476562 -173 249 C-171.19523895 245.74358332 -170.26051195 242.54663205 -169.375 238.9375 C-169.11460937 237.89464844 -168.85421875 236.85179687 -168.5859375 235.77734375 C-167.8967867 232.98384873 -167.8967867 232.98384873 -168 230 C-170.94386623 230 -172.63886498 231.47007076 -175.125 233 Z M-199.859375 248.1328125 C-200.634021 248.60235352 -201.40866699 249.07189453 -202.20678711 249.55566406 C-203.04604736 250.07354492 -203.88530762 250.59142578 -204.75 251.125 C-206.0639978 251.92502441 -206.0639978 251.92502441 -207.40454102 252.74121094 C-209.28913506 253.88946681 -211.17196718 255.04061842 -213.05322266 256.19433594 C-216.02432682 258.01490647 -219.00140912 259.82529317 -221.98046875 261.6328125 C-232.00878276 267.71970687 -242.02099959 273.83255637 -252 280 C-248.84683528 282.10210981 -246.62909749 282.72772109 -242.96801758 283.60400391 C-241.72695755 283.90416412 -240.48589752 284.20432434 -239.20722961 284.51358032 C-237.85302738 284.83470324 -236.49879384 285.15569421 -235.14453125 285.4765625 C-233.75863731 285.8094823 -232.37287123 286.14293481 -230.98722839 286.47689819 C-227.3437999 287.35351293 -223.69868008 288.22288316 -220.05316162 289.09075928 C-216.33191917 289.97801474 -212.61232067 290.87210626 -208.89257812 291.765625 C-201.59664439 293.51711374 -194.29891047 295.26095284 -187 297 C-184.70907036 292.53422093 -183.54739099 288.03910878 -182.3125 283.1875 C-182.07466797 282.31029297 -181.83683594 281.43308594 -181.59179688 280.52929688 C-179.65919274 272.95190178 -179.79630954 267.91812983 -183.6171875 260.94140625 C-184.69081347 259.14103838 -185.7771115 257.34817579 -186.875 255.5625 C-187.41769531 254.64017578 -187.96039063 253.71785156 -188.51953125 252.76757812 C-190.59550192 249.26752404 -190.59550192 249.26752404 -193 246 C-196.28174914 246 -197.13820186 246.46727806 -199.859375 248.1328125 Z M57.4453125 252.12109375 C56.87970108 252.45271515 56.31408966 252.78433655 55.7313385 253.12600708 C53.85984259 254.22529389 51.99235052 255.33118826 50.125 256.4375 C48.83123042 257.19994854 47.53736533 257.96223502 46.2434082 258.72436523 C32.75084659 266.68670381 19.36441008 274.82487145 6 283 C11.30678312 292.38700684 16.75982646 301.66894028 22.375 310.875 C23.11910781 312.09795222 23.86316655 313.3209343 24.60717773 314.54394531 C30.00337934 323.40532772 35.4571679 332.22952365 41 341 C43.89750733 338.10249267 44.30022409 334.59984669 45.24658203 330.7265625 C45.46145264 329.87116882 45.67632324 329.01577515 45.89770508 328.13446045 C46.60791873 325.29963402 47.30797482 322.46240421 48.0078125 319.625 C48.49765142 317.6595313 48.98804555 315.6942009 49.47897339 313.72900391 C50.50704579 309.60750031 51.53047917 305.48488284 52.55029297 301.36132812 C53.85983308 296.06658513 55.17753907 290.77391977 56.49829292 285.48196411 C57.51092624 281.42313038 58.5208925 277.36363725 59.52987289 273.30389404 C60.01507239 271.3516745 60.50072136 269.3995666 60.98682022 267.4475708 C61.66442192 264.72346514 62.33882773 261.99858954 63.01220703 259.2734375 C63.21478119 258.46090515 63.41735535 257.6483728 63.62606812 256.81121826 C64.63566198 252.95165847 64.63566198 252.95165847 65 249 C61.94660796 249 60.06313047 250.58036669 57.4453125 252.12109375 Z M81 252 C76.6718884 267.0939582 72.8406291 282.30884887 69.03129935 297.54028845 C68.50665342 299.63743496 67.98133474 301.73441182 67.45578957 303.83133316 C65.61848322 311.16219617 63.7835402 318.4936458 61.95092773 325.82568359 C60.24705653 332.64237825 58.53789288 339.45773143 56.82635087 346.27250373 C55.34944675 352.15399594 53.87615967 358.03638637 52.40570289 363.91949379 C51.53046837 367.42094098 50.65378577 370.92200961 49.77344322 374.42217636 C48.79642688 378.30733158 47.82693459 382.19432588 46.8581543 386.08154297 C46.42110168 387.8128949 46.42110168 387.8128949 45.97521973 389.57922363 C45.7131926 390.63572113 45.45116547 391.69221863 45.18119812 392.7807312 C44.95171321 393.69758131 44.7222283 394.61443142 44.4857893 395.55906487 C43.86987354 398.23904266 43.86987354 398.23904266 44 402 C47.45405839 400.70248409 50.53113236 399.1955843 53.67578125 397.26953125 C54.57337158 396.72184082 55.47096191 396.17415039 56.39575195 395.60986328 C57.35827881 395.0167334 58.32080566 394.42360352 59.3125 393.8125 C60.32723389 393.19101074 61.34196777 392.56952148 62.38745117 391.92919922 C70.54958342 386.9195768 78.67269979 381.84787119 86.78637695 376.76025391 C95.42554478 371.3459929 104.1059736 366.00044217 112.79370117 360.66455078 C121.22256824 355.48537515 129.62367499 350.26367251 138 345 C136.71083853 341.57043686 135.22142892 338.51452777 133.3046875 335.39453125 C132.76199219 334.50701172 132.21929687 333.61949219 131.66015625 332.70507812 C131.07105469 331.75052734 130.48195313 330.79597656 129.875 329.8125 C128.94880859 328.30139648 128.94880859 328.30139648 128.00390625 326.75976562 C126.00677743 323.50392535 124.00390888 320.25167101 122 317 C120.66916181 314.83730667 119.33843233 312.67454643 118.0078125 310.51171875 C115.99866486 307.24673126 113.98896273 303.98209175 111.97753906 300.71850586 C107.50112026 293.45272536 103.05465632 286.16936609 98.625 278.875 C94.50019754 272.09117622 90.36994006 265.31098556 86.1875 258.5625 C85.56512451 257.55002197 85.56512451 257.55002197 84.93017578 256.51708984 C83.98127045 254.99370769 82.99504583 253.49365268 82 252 C81.67 252 81.34 252 81 252 Z M-303 253 C-306.39570896 266.48939675 -309.78596621 279.98015347 -313.16993713 293.47249985 C-314.74133047 299.73717978 -316.31447555 306.00140902 -317.89160156 312.26464844 C-319.41293594 318.30659294 -320.92969803 324.34966822 -322.44326782 330.39356232 C-323.02215141 332.70169373 -323.6026943 335.00940963 -324.18490601 337.3167038 C-324.99873276 340.5430665 -325.80670055 343.77084284 -326.61328125 346.99902344 C-326.97796005 348.43616699 -326.97796005 348.43616699 -327.3500061 349.90234375 C-327.56877411 350.78291443 -327.78754211 351.66348511 -328.01293945 352.57073975 C-328.20467239 353.33398434 -328.39640533 354.09722893 -328.59394836 354.88360214 C-329.12561545 357.2955589 -329.12561545 357.2955589 -329 361 C-315.49297093 364.39426967 -301.98492399 367.78446126 -288.47568798 371.16993713 C-282.20329144 372.74195534 -275.93123096 374.31528911 -269.65991211 375.89160156 C-263.61123057 377.41190261 -257.5617011 378.92878428 -251.51156044 380.44326782 C-249.1999164 381.02256788 -246.8885841 381.60311331 -244.57756615 382.18490601 C-241.3483366 382.99763312 -238.11804134 383.80598236 -234.88745117 384.61328125 C-233.92576019 384.85640045 -232.96406921 385.09951965 -231.97323608 385.3500061 C-231.09404007 385.56877411 -230.21484406 385.78754211 -229.30900574 386.01293945 C-228.16275616 386.30053886 -228.16275616 386.30053886 -226.99335003 386.59394836 C-224.84910945 387.09980197 -224.84910945 387.09980197 -222 387 C-223.35560863 383.40374264 -224.96128802 380.13737533 -226.87890625 376.80859375 C-227.46124023 375.79651855 -228.04357422 374.78444336 -228.64355469 373.74169922 C-229.27680664 372.65131348 -229.91005859 371.56092773 -230.5625 370.4375 C-230.89157349 369.86888245 -231.22064697 369.30026489 -231.55969238 368.7144165 C-237.35826454 358.6986694 -243.32979341 348.79408865 -249.36157227 338.91699219 C-255.76812907 328.42083134 -262.05371765 317.85487378 -268.31738281 307.27294922 C-272.77090028 299.74953546 -277.24628736 292.24001559 -281.75048828 284.74682617 C-283.64123266 281.60056794 -285.52265259 278.44883765 -287.40194702 275.29573059 C-288.87393891 272.82944465 -290.35242738 270.3670959 -291.83227539 267.90551758 C-292.58425335 266.65155655 -293.33350147 265.39595533 -294.08032227 264.13891602 C-295.18089011 262.28767184 -296.29056224 260.44218159 -297.40234375 258.59765625 C-298.36901978 256.98129272 -298.36901978 256.98129272 -299.35522461 255.33227539 C-299.89800049 254.56262451 -300.44077637 253.79297363 -301 253 C-301.66 253 -302.32 253 -303 253 Z M-25 266 C-25.69761537 268.60183588 -26.38337774 271.20583602 -27.0625 273.8125 C-27.26166016 274.55048828 -27.46082031 275.28847656 -27.66601562 276.04882812 C-28.86176346 280.52507319 -28.86176346 280.52507319 -28 285 C-22.06 281.535 -22.06 281.535 -16 278 C-17.11375 276.02 -18.2275 274.04 -19.375 272 C-20.00148438 270.88625 -20.62796875 269.7725 -21.2734375 268.625 C-21.84320313 267.75875 -22.41296875 266.8925 -23 266 C-23.66 266 -24.32 266 -25 266 Z M-168 287 C-168.99 291.62 -169.98 296.24 -171 301 C-166.38 301.99 -161.76 302.98 -157 304 C-158.62130697 299.94673257 -160.33240762 296.44864017 -162.5 292.6875 C-163.1084375 291.61886719 -163.716875 290.55023438 -164.34375 289.44921875 C-164.8903125 288.64097656 -165.436875 287.83273437 -166 287 C-166.66 287 -167.32 287 -168 287 Z M-14.5625 294.5546875 C-15.44164062 295.08707031 -16.32078125 295.61945313 -17.2265625 296.16796875 C-18.14179688 296.73128906 -19.05703125 297.29460937 -20 297.875 C-21.37285156 298.70837891 -21.37285156 298.70837891 -22.7734375 299.55859375 C-29.45162594 302.97249892 -29.45162594 302.97249892 -33.89135742 308.36669922 C-34.12701416 309.33623535 -34.3626709 310.30577148 -34.60546875 311.3046875 C-34.86650391 312.36300781 -35.12753906 313.42132813 -35.39648438 314.51171875 C-35.65751953 315.62160156 -35.91855469 316.73148437 -36.1875 317.875 C-36.59645508 319.52822266 -36.59645508 319.52822266 -37.01367188 321.21484375 C-38.08080268 325.61709262 -39 329.45043521 -39 334 C-30.69066909 336.08890335 -22.38071077 338.17528442 -14.06993294 340.25842285 C-10.21118384 341.22572258 -6.3526591 342.19389906 -2.49462891 343.1640625 C1.22660023 344.09979115 4.94839468 345.03323857 8.67059708 345.96508789 C10.09260683 346.3215162 11.51440877 346.6787746 12.93600082 347.03686523 C14.92277792 347.53717388 16.91026457 348.03456122 18.89794922 348.53125 C20.03046112 348.81548828 21.16297302 349.09972656 22.32980347 349.39257812 C24.86862725 350.07393841 24.86862725 350.07393841 27 350 C25.56746582 346.13259986 23.76204955 342.71111877 21.65625 339.16796875 C20.99157715 338.04704834 20.3269043 336.92612793 19.64208984 335.77124023 C18.92826396 334.57653821 18.21423007 333.38196043 17.5 332.1875 C16.77154664 330.96368286 16.04319426 329.73980561 15.31494141 328.51586914 C10.65970745 320.70666838 5.92531416 312.95175952 1.05078125 305.27734375 C-1.33770581 301.46031395 -3.57332694 297.56840961 -5.74609375 293.625 C-6.15988281 293.08875 -6.57367188 292.5525 -7 292 C-10.48523863 292 -11.62547533 292.76265459 -14.5625 294.5546875 Z M-256 296 C-254.38218093 300.04454767 -252.70217395 303.40425899 -250.5078125 307.12890625 C-250.1661203 307.71087769 -249.8244281 308.29284912 -249.47238159 308.89245605 C-248.36011256 310.78457168 -247.24273751 312.67361048 -246.125 314.5625 C-245.34616251 315.88392026 -244.56751835 317.20545448 -243.7890625 318.52709961 C-232.03770209 338.45920066 -220.02258988 358.23085186 -208 378 C-207.34 377.67 -206.68 377.34 -206 377 C-205.0726491 374.2839592 -205.0726491 374.2839592 -204.30419922 370.91967773 C-204.14536318 370.27526513 -203.98652714 369.63085253 -203.82287788 368.96691227 C-203.3090796 366.87427594 -202.8067104 364.77908259 -202.3046875 362.68359375 C-201.83591187 360.76842957 -201.83591187 360.76842957 -201.35766602 358.8145752 C-200.1877554 354.02441124 -199.03225951 349.23073606 -197.875 344.4375 C-193.976875 328.3809375 -193.976875 328.3809375 -190 312 C-211.78 306.72 -233.56 301.44 -256 296 Z M-175 316 C-177.09035373 324.16129591 -179.17685343 332.32356315 -181.25842285 340.48710346 C-182.2250711 344.27761676 -183.19304971 348.06777994 -184.1640625 351.85717773 C-185.10086997 355.51329148 -186.0341908 359.17027894 -186.96508789 362.82790184 C-187.32108194 364.22407996 -187.67833698 365.61993718 -188.03686523 367.01546669 C-188.53831789 368.96820069 -189.03489756 370.92218409 -189.53125 372.8762207 C-189.81548828 373.9887471 -190.09972656 375.1012735 -190.39257812 376.24751282 C-191.10774806 379.01846673 -191.10774806 379.01846673 -191 382 C-186.69411611 380.43942348 -182.8551638 378.27681067 -178.9375 375.9375 C-178.22795166 375.51702393 -177.51840332 375.09654785 -176.78735352 374.66333008 C-162.10428413 365.92976413 -147.46022168 357.09796395 -133 348 C-133.29213379 347.27022949 -133.58426758 346.54045898 -133.88525391 345.78857422 C-134.56084604 344.09855815 -135.22926999 342.40561977 -135.88427734 340.70751953 C-138.96817028 333.17421308 -142.49535653 325.0427655 -150.24429321 321.52877808 C-153.97086002 320.45069464 -157.66985051 319.61270779 -161.4765625 318.8671875 C-162.79157842 318.57975776 -164.10580338 318.28868409 -165.41918945 317.99389648 C-168.60689097 317.29315806 -171.79771428 316.63005138 -175 316 Z M-61.625 320.5 C-62.33140625 320.92925781 -63.0378125 321.35851562 -63.765625 321.80078125 C-65.51281139 322.86325946 -67.25671857 323.93112671 -69 325 C-66.16812447 327.83187553 -62.85377322 328.41788129 -59 329 C-56.13442047 328.73198143 -56.13442047 328.73198143 -54 328 C-53.67 326.7625 -53.34 325.525 -53 324.25 C-52.814375 323.55390625 -52.62875 322.8578125 -52.4375 322.140625 C-51.86650651 319.71098139 -51.86650651 319.71098139 -52 316 C-55.61561971 316 -58.60698193 318.64575642 -61.625 320.5 Z M-126 326 C-124.58001139 329.54997152 -123.3878411 332.18729934 -121.375 335.3125 C-120.92898437 336.00988281 -120.48296875 336.70726562 -120.0234375 337.42578125 C-119.68570313 337.94527344 -119.34796875 338.46476562 -119 339 C-117.20601733 338.04600922 -115.41488345 337.08665974 -113.625 336.125 C-112.12839844 335.32449219 -112.12839844 335.32449219 -110.6015625 334.5078125 C-107.94651605 333.1179862 -107.94651605 333.1179862 -106 331 C-112.6 329.35 -119.2 327.7 -126 326 Z M-93.3984375 341.84375 C-94.85830078 342.72353516 -94.85830078 342.72353516 -96.34765625 343.62109375 C-97.34667969 344.24113281 -98.34570312 344.86117188 -99.375 345.5 C-100.39722656 346.12003906 -101.41945312 346.74007813 -102.47265625 347.37890625 C-104.98919502 348.90764475 -107.49765417 350.44817731 -110 352 C-109.41773516 356.21243452 -107.97966286 359.06525364 -105.74609375 362.6640625 C-105.06345459 363.77426758 -104.38081543 364.88447266 -103.67749023 366.02832031 C-103.31227264 366.6147229 -102.94705505 367.20112549 -102.57077026 367.80529785 C-100.6367879 370.91071054 -98.72671697 374.03081803 -96.8125 377.1484375 C-96.41747787 377.79014893 -96.02245575 378.43186035 -95.61546326 379.09301758 C-91.30932161 386.09789126 -87.11777753 393.1695345 -82.9375 400.25 C-82.23432581 401.43963491 -81.53112028 402.6292513 -80.82788086 403.81884766 C-79.21724259 406.5451087 -77.60786252 409.2721013 -76 412 C-74.22392754 408.78173839 -73.28624444 405.64612219 -72.39599609 402.08569336 C-72.09583588 400.89443344 -71.79567566 399.70317352 -71.48641968 398.47581482 C-71.16522065 397.18054194 -70.84423161 395.88521697 -70.5234375 394.58984375 C-70.19030165 393.25745536 -69.85685175 391.92514546 -69.52310181 390.59291077 C-68.82588686 387.80543342 -68.13195344 385.01716601 -67.44042969 382.22827148 C-66.55384021 378.65349137 -65.65991897 375.08059442 -64.76364708 371.50823116 C-64.07470562 368.75941829 -63.38923353 366.00974969 -62.70485306 363.25979805 C-62.37649407 361.94184667 -62.04715118 360.62414002 -61.71680832 359.30668449 C-61.25614914 357.46695695 -60.8005634 355.62596127 -60.34521484 353.78491211 C-60.08477386 352.73774521 -59.82433289 351.69057831 -59.55599976 350.61167908 C-58.89588825 347.9559938 -58.89588825 347.9559938 -59 345 C-62.70511299 343.98780154 -66.41454857 342.992434 -70.125 342 C-71.17171875 341.71382813 -72.2184375 341.42765625 -73.296875 341.1328125 C-74.31523437 340.86210937 -75.33359375 340.59140625 -76.3828125 340.3125 C-77.31496582 340.06113281 -78.24711914 339.80976563 -79.20751953 339.55078125 C-84.93737849 338.42063946 -88.39660081 338.78380285 -93.3984375 341.84375 Z M-43 349 C-45.54391754 356.26304103 -47.50344947 363.59185219 -49.35546875 371.05859375 C-49.81521843 372.89684471 -49.81521843 372.89684471 -50.28425598 374.77223206 C-50.92712565 377.34604 -51.56863614 379.92013823 -52.20776367 382.49487305 C-53.02753047 385.79679981 -53.85259137 389.09737623 -54.67931652 392.3975668 C-55.46965761 395.5547969 -56.25621332 398.71296854 -57.04296875 401.87109375 C-57.3397905 403.05746933 -57.63661224 404.24384491 -57.94242859 405.46617126 C-58.21303604 406.55813309 -58.48364349 407.65009491 -58.76245117 408.77514648 C-59.00211105 409.7383934 -59.24177094 410.70164032 -59.48869324 411.69407654 C-60.07215943 413.93177399 -60.07215943 413.93177399 -60 416 C-55.741027 414.45475788 -51.94613458 412.32013426 -48.07421875 410 C-47.41467697 409.60840195 -46.75513519 409.21680389 -46.0756073 408.81333923 C-43.94395667 407.54601301 -41.81561749 406.27324875 -39.6875 405 C-38.21181348 404.12041976 -36.73606459 403.24094417 -35.26025391 402.36157227 C-27.75026927 397.87832126 -20.27887318 393.34567648 -12.88066101 388.6796875 C-8.4226911 385.87071903 -3.9219065 383.14824273 0.6171875 380.47265625 C2.00652843 379.64817238 3.39568458 378.82337708 4.78466797 377.99829102 C6.88625277 376.75091032 8.98925568 375.50630272 11.097229 374.26974487 C13.068647 373.11325589 15.03468513 371.94807119 17 370.78125 C17.60536591 370.42962296 18.21073181 370.07799591 18.83444214 369.7157135 C20.25739892 368.8656339 21.63461511 367.93976882 23 367 C23 366.34 23 365.68 23 365 C14.69066909 362.91109665 6.38071077 360.82471558 -1.93006706 358.74157715 C-5.78881616 357.77427742 -9.6473409 356.80610094 -13.50537109 355.8359375 C-17.22660023 354.90020885 -20.94839468 353.96676143 -24.67059708 353.03491211 C-26.09260683 352.6784838 -27.51440877 352.3212254 -28.93600082 351.96313477 C-30.92277792 351.46282612 -32.91026457 350.96543878 -34.89794922 350.46875 C-36.03046112 350.18451172 -37.16297302 349.90027344 -38.32980347 349.60742188 C-40.86862725 348.92606159 -40.86862725 348.92606159 -43 349 Z M-132.45703125 365.69921875 C-133.43403992 366.27957634 -133.43403992 366.27957634 -134.43078613 366.87165833 C-136.56084518 368.13893999 -138.68683304 369.41286703 -140.8125 370.6875 C-142.26905032 371.55741563 -143.72567492 372.4272069 -145.18237305 373.296875 C-153.58546449 378.32086103 -161.9714422 383.37359145 -170.3125 388.5 C-171.58927612 389.28056763 -171.58927612 389.28056763 -172.8918457 390.0769043 C-174.0533313 390.79680542 -174.0533313 390.79680542 -175.23828125 391.53125 C-175.89868408 391.93923828 -176.55908691 392.34722656 -177.23950195 392.76757812 C-179.03954522 394.0276833 -180.49764489 395.40166351 -182 397 C-174.77593177 399.55625944 -167.48833646 401.40970014 -160.02148438 403.10546875 C-159.17263672 403.30785156 -158.32378906 403.51023437 -157.44921875 403.71875 C-156.68955811 403.89341797 -155.92989746 404.06808594 -155.1472168 404.24804688 C-152.64740661 405.12347784 -150.98138851 406.25086714 -149 408 C-147.86784819 411.07298348 -147.88158395 412.59920721 -148.8125 415.75 C-150 418 -150 418 -152 419 C-156.73822763 419.2208665 -160.81435734 418.76099583 -165.39990234 417.59472656 C-166.62583099 417.2873053 -167.85175964 416.97988403 -169.11483765 416.66314697 C-170.43857 416.32243219 -171.76226908 415.9815881 -173.0859375 415.640625 C-174.46991048 415.29072141 -175.85408002 414.94159446 -177.23843384 414.59320068 C-180.88005085 413.67472363 -184.51914202 412.74661545 -188.15771484 411.81616211 C-191.80306869 410.88535661 -195.45036042 409.96222386 -199.09765625 409.0390625 C-199.80666706 408.85952278 -200.51567787 408.67998306 -201.24617386 408.49500275 C-207.33537998 406.95331656 -213.425127 405.41378508 -219.51599121 403.87866211 C-221.68158052 403.33250354 -223.84677628 402.78477898 -226.01135254 402.23461914 C-228.43502232 401.62082761 -230.8611523 401.01862617 -233.2890625 400.421875 C-234.5260791 400.1134668 -235.7630957 399.80505859 -237.03759766 399.48730469 C-239.82812675 399.02827254 -241.38254863 399.02482349 -244 400 C-234.23863159 416.50655641 -224.44999781 432.99289133 -214.44897461 449.35571289 C-210.51240862 455.81109019 -206.63788221 462.29769792 -202.8203125 468.82421875 C-201.94602528 470.31448935 -201.07167674 471.80472397 -200.19726562 473.29492188 C-198.50642632 476.1773457 -196.8274424 479.06626293 -195.15429688 481.95898438 C-194.38715345 483.26848392 -193.61959674 484.57774147 -192.8515625 485.88671875 C-192.50545929 486.49255295 -192.15935608 487.09838715 -191.80276489 487.72257996 C-189.72803252 491.2971031 -189.72803252 491.2971031 -186 493 C-184.1797344 492.29994637 -184.1797344 492.29994637 -182.31640625 491.0703125 C-181.56907227 490.61390381 -180.82173828 490.15749512 -180.05175781 489.68725586 C-179.23030273 489.17171143 -178.40884766 488.65616699 -177.5625 488.125 C-176.68561523 487.58689697 -175.80873047 487.04879395 -174.90527344 486.49438477 C-172.96781335 485.30533649 -171.03288083 484.11216287 -169.10009766 482.91552734 C-164.24512192 479.91567385 -159.36681766 476.95440994 -154.48828125 473.99307251 C-152.73375352 472.92763431 -150.98013018 471.86071859 -149.2265625 470.79370117 C-138.56546325 464.31296218 -127.84054452 457.94117115 -117.09863281 451.59545898 C-109.01218468 446.81452836 -100.98265667 441.95263254 -93 437 C-95.72764631 434.27235369 -98.11864064 434.09634617 -101.87109375 433.23046875 C-103.26385471 432.89594261 -104.65642735 432.56063157 -106.04882812 432.22460938 C-108.24366256 431.70273143 -110.43939126 431.18706856 -112.63891602 430.68530273 C-114.7626838 430.19743912 -116.87918217 429.68465886 -118.99609375 429.16796875 C-120.26638428 428.87172607 -121.5366748 428.5754834 -122.84545898 428.27026367 C-126 427 -126 427 -127.94946289 424.5637207 C-129.29814955 421.27239869 -128.97731628 419.3830179 -128 416 C-126 414 -126 414 -122.1484375 413.6875 C-116.09047055 413.82336149 -110.44338028 415.42285663 -104.625 417 C-102.49297644 417.56548295 -100.36019556 418.12812055 -98.2265625 418.6875 C-97.29408691 418.93886719 -96.36161133 419.19023437 -95.40087891 419.44921875 C-92.92320043 420.1117999 -92.92320043 420.1117999 -90 420 C-91.52667832 415.80668413 -93.60908104 412.06426782 -95.89453125 408.25 C-96.27865173 407.60276978 -96.66277222 406.95553955 -97.05853271 406.28869629 C-98.30583564 404.19003974 -99.55871313 402.09478844 -100.8125 400 C-101.67245706 398.55925219 -102.53240166 397.11849694 -103.39233398 395.67773438 C-105.9205364 391.44718936 -108.45922596 387.22300269 -111 383 C-111.36246826 382.39639648 -111.72493652 381.79279297 -112.09838867 381.17089844 C-114.23965963 377.60564446 -116.39537232 374.04958939 -118.5625 370.5 C-119.35587769 369.18515625 -119.35587769 369.18515625 -120.1652832 367.84375 C-120.64827881 367.06 -121.13127441 366.27625 -121.62890625 365.46875 C-122.04213135 364.79263672 -122.45535645 364.11652344 -122.88110352 363.41992188 C-123.25033936 362.95134766 -123.6195752 362.48277344 -124 362 C-127.25526935 362 -129.73190085 364.06177516 -132.45703125 365.69921875 Z M31 380 C30.2565332 380.45213867 29.51306641 380.90427734 28.74707031 381.37011719 C16.06166084 389.08300251 3.37561328 396.7936954 -9.36523438 404.41479492 C-15.75653411 408.2425161 -22.12139098 412.11280826 -28.48434448 415.98742676 C-29.35834396 416.51958801 -29.35834396 416.51958801 -30.25 417.0625 C-30.83290802 417.4174353 -31.41581604 417.77237061 -32.01638794 418.13806152 C-41.10015954 423.66575706 -50.22699521 429.11722009 -59.37866211 434.53167725 C-69.36992134 440.44403126 -79.35406468 446.36637403 -89.25 452.4375 C-90.0948999 452.95086914 -90.9397998 453.46423828 -91.81030273 453.99316406 C-92.57930908 454.46850586 -93.34831543 454.94384766 -94.140625 455.43359375 C-94.79579102 455.83634521 -95.45095703 456.23909668 -96.12597656 456.65405273 C-98.32404297 458.23273174 -100.10576815 460.07256429 -102 462 C-88.51060325 465.39570896 -75.01984653 468.78596621 -61.52750015 472.16993713 C-55.26282022 473.74133047 -48.99859098 475.31447555 -42.73535156 476.89160156 C-36.69340706 478.41293594 -30.65033178 479.92969803 -24.60643768 481.44326782 C-22.29830627 482.02215141 -19.99059037 482.6026943 -17.6832962 483.18490601 C-14.4569335 483.99873276 -11.22915716 484.80670055 -8.00097656 485.61328125 C-7.04288086 485.85640045 -6.08478516 486.09951965 -5.09765625 486.3500061 C-4.21708557 486.56877411 -3.33651489 486.78754211 -2.42926025 487.01293945 C-1.66601566 487.20467239 -0.90277107 487.39640533 -0.11639786 487.59394836 C2.2955589 488.12561545 2.2955589 488.12561545 6 488 C9.41722549 474.36399455 12.82496919 460.72565007 16.22174931 447.08453655 C17.79916656 440.75098067 19.37964003 434.41821987 20.96704102 428.0871582 C22.49790252 421.98112209 24.02081013 415.87315338 25.53814507 409.76374245 C26.11941141 407.42935897 26.70357523 405.09569506 27.29063606 402.76276207 C28.11029893 399.50342915 28.9197655 396.24172543 29.72680664 392.97924805 C30.09687836 391.52268547 30.09687836 391.52268547 30.47442627 390.03669739 C30.69181961 389.14908722 30.90921295 388.26147705 31.13319397 387.3469696 C31.3258487 386.57542888 31.51850344 385.80388815 31.71699619 385.0089674 C32.18044657 382.79888853 32.18044657 382.79888853 31 380 Z " fill="#000000" transform="translate(354,0)"/>
</svg>
